<?xml version="1.0" encoding="utf-8"?>
<!-- Generator: Adobe Illustrator 20.1.0, SVG Export Plug-In . SVG Version: 6.00 Build 0)  -->
<svg version="1.1" id="Layer_1" xmlns="http://www.w3.org/2000/svg" xmlns:xlink="http://www.w3.org/1999/xlink" x="0px" y="0px"
	 viewBox="0 0 28.1 39" style="enable-background:new 0 0 28.1 39;" xml:space="preserve">
<style type="text/css">
	.st0{fill:#00C7F4;}
	.st1{opacity:0.2;enable-background:new    ;}
	.st2{fill:#FFFFFF;}
</style>
<path class="st0" d="M28.1,14.1L28.1,14.1L28.1,14.1c0-7.8-6.3-14.1-14-14.1s-14,6.3-14,14l0,0l0,0c0,0.9,0.1,1.9,0.3,2.8
	C1.7,24.6,7.7,31.6,14.2,39c6.4-7.4,12.4-14.4,13.8-22.2C28,15.9,28.1,15,28.1,14.1z"/>
<circle class="st1" cx="14" cy="14.4" r="10.4"/>
<path class="st2" d="M15.2,6.9c-0.2,1.2,0,2.4,0.6,3.4c0.4,0.8,0.9,1.5,1.4,2.1c2.1,2.6,1.8,6.5-0.6,8.8c-0.8,0.8-1.8,1.4-2.9,1.8
	c0-0.5-0.1-1.1-0.2-1.6c-0.3-0.8-0.8-1.5-1.5-2c-1.4-1-2.3-2.5-2.5-4.2c-0.2-1.4,0.2-2.7,0.9-3.9c0-0.1,0.1-0.1,0.2-0.2
	c-0.1,1,0.2,2,0.8,2.8c0-2.3,0.9-4.5,2.4-6.2c0.4-0.3,0.7-0.6,1.1-0.9L15.2,6.9z"/>
</svg>
