<?xml version="1.0" encoding="utf-8"?>
<!-- Generator: Adobe Illustrator 20.1.0, SVG Export Plug-In . SVG Version: 6.00 Build 0)  -->
<svg version="1.1" id="Layer_1" xmlns="http://www.w3.org/2000/svg" xmlns:xlink="http://www.w3.org/1999/xlink" x="0px" y="0px"
	 viewBox="0 0 28.1 39" style="enable-background:new 0 0 28.1 39;" xml:space="preserve">
<style type="text/css">
	.st0{fill:#003B48;}
	.st1{opacity:0.2;enable-background:new    ;}
	.st2{fill:#FFFFFF;}
</style>
<path class="st0" d="M28.1,14.1L28.1,14.1L28.1,14.1c0-7.8-6.3-14.1-14-14.1s-14,6.3-14,14l0,0l0,0c0,0.9,0.1,1.9,0.3,2.8
	C1.7,24.6,7.7,31.6,14.2,39c6.4-7.4,12.4-14.4,13.8-22.2C28,15.9,28.1,15,28.1,14.1z"/>
<path class="st1" d="M14,4c5.8,0,10.4,4.7,10.4,10.4c0,5.8-4.7,10.4-10.4,10.4S3.6,20.1,3.6,14.4S8.3,4,14,4L14,4z"/>
<path class="st2" d="M14.2,8c-3.6,0-6.6,2.9-6.6,6.6s2.9,6.6,6.6,6.6c3.6,0,6.6-2.9,6.6-6.6C20.7,10.9,17.8,8,14.2,8z M19.8,14.6
	c0,1.2-0.4,2.4-1.2,3.4c-0.3-0.3-0.4-0.7-0.2-1c0.2-0.6,0.3-1.3,0.2-1.9c-0.1-0.4-0.3-1.4-0.8-1.4c-0.6,0-1.1-0.3-1.3-0.9
	c-0.7-1.4,1.3-1.7,0.6-2.5c-0.2-0.2-1.2,0.9-1.4-0.6c0-0.2,0.1-0.3,0.2-0.4C18.2,10,19.8,12.2,19.8,14.6L19.8,14.6z M13.4,9
	c-0.1,0.3-0.5,0.4-0.7,0.6C12.2,10,12,10,11.8,10.4c-0.3,0.4-1.1,1-1.1,1.3s0.4,0.7,0.6,0.6c0.4-0.1,0.7,0,1.1,0.1
	c0.3,0.1,2.7,0.2,1.9,2.2c-0.2,0.6-1.3,0.5-1.6,1.6c-0.1,0.3-0.2,0.7-0.2,1s0.2,1.6-0.1,1.6s-1.2-1.1-1.2-1.3C11.1,17,11,16.5,11,16
	c0-0.6-1-0.6-1-1.4c0-0.7,0.6-1.1,0.4-1.4c-0.1-0.3-1.1-0.4-1.5-0.4C9.7,10.6,11.4,9.3,13.4,9z M12.4,19.9c0.3-0.2,0.4-0.4,0.7-0.4
	c0.3-0.1,0.7-0.1,1-0.2c0.5-0.2,1-0.4,1.5-0.5c0.5,0,1.4,0,1.6,0.5c-0.9,0.6-2,0.9-3.1,0.9C13.6,20.2,13,20.1,12.4,19.9z"/>
</svg>
