<?xml version="1.0" encoding="utf-8"?>
<!-- Generator: Adobe Illustrator 20.1.0, SVG Export Plug-In . SVG Version: 6.00 Build 0)  -->
<svg version="1.1" id="Layer_1" xmlns="http://www.w3.org/2000/svg" xmlns:xlink="http://www.w3.org/1999/xlink" x="0px" y="0px"
	 viewBox="0 0 28 39" style="enable-background:new 0 0 28 39;" xml:space="preserve">
<style type="text/css">
	.st0{fill:#006379;}
	.st1{opacity:0.2;enable-background:new    ;}
	.st2{fill:#FFFFFF;}
</style>
<path class="st0" d="M28,14.1L28,14.1L28,14.1C28,6.3,21.7,0,14,0S0,6.3,0,14l0,0l0,0c0,0.9,0.1,1.9,0.3,2.8
	C1.6,24.6,7.6,31.6,14.1,39c6.4-7.4,12.4-14.4,13.8-22.2C27.9,15.9,28,15,28,14.1z"/>
<path class="st1" d="M13.9,4c5.8,0,10.4,4.7,10.4,10.4c0,5.8-4.7,10.4-10.4,10.4S3.5,20.1,3.5,14.4S8.2,4,13.9,4L13.9,4z"/>
<path class="st2" d="M14.6,20h-0.2c0,0-0.1,0-0.1-0.1c-1.9-0.6-3.9-1.1-5.8-1.7c-0.7-0.2-1.2-0.7-1.4-1.4C7,16.6,7,16.4,6.9,16.2
	v-0.4c0-0.1,0-0.2,0.1-0.3c0.1-0.7,0.4-1.3,0.8-1.8c1.6-1.8,3.2-3.6,4.8-5.4c0.1-0.1,0.3-0.3,0.5-0.4h0.2h0.1c2,0.4,4,0.9,6,1.3
	c0.3,0,0.5,0.2,0.6,0.5v0.2c-0.1,0.1-0.1,0.2-0.2,0.2c-1.7,2-3.5,4-5.2,6c-0.2,0.2-0.5,0.3-0.7,0.2c-1-0.3-2-0.6-3.1-0.9
	c-0.7-0.2-1.4-0.4-2-0.5c-0.3-0.1-0.6,0-0.7,0.3c-0.3,0.7,0,1.5,0.7,1.8c0,0,0.1,0,0.1,0.1c1.7,0.5,3.5,1,5.2,1.6
	c0.1,0.1,0.3,0,0.3-0.1c1.4-1.7,2.8-3.4,4.2-5.1c0.1-0.1,0.2-0.3,0.2-0.5c0-0.4,0-0.8,0.2-1.1c0.1-0.2,0.3-0.3,0.6-0.3
	c0.2,0.1,0.4,0.3,0.4,0.5c0,0.1,0,0.1,0,0.2c0,0.3,0,0.5,0,0.8c0.1,0.2,0,0.5-0.2,0.7c-1.6,1.9-3.1,3.8-4.7,5.7
	C14.8,19.8,14.7,19.9,14.6,20z M13,10c-0.1,0.1-0.3,0.1-0.4,0.2c-0.1,0.1-0.2,0.2-0.3,0.3c-0.2,0.2-0.2,0.3,0.1,0.4
	c1.2,0.3,2.4,0.6,3.7,0.9c0.2,0.1,0.5,0,0.6-0.2c0.1-0.1,0.1-0.2,0.2-0.3c0.2-0.3,0.2-0.4-0.2-0.5c-0.9-0.2-1.7-0.4-2.6-0.6
	C13.8,10.2,13.4,10.1,13,10z"/>
</svg>
