<?xml version="1.0" encoding="utf-8"?>
<!-- Generator: Adobe Illustrator 20.1.0, SVG Export Plug-In . SVG Version: 6.00 Build 0)  -->
<svg version="1.1" id="Layer_1" xmlns="http://www.w3.org/2000/svg" xmlns:xlink="http://www.w3.org/1999/xlink" x="0px" y="0px"
	 viewBox="0 0 28.1 39" style="enable-background:new 0 0 28.1 39;" xml:space="preserve">
<style type="text/css">
	.st0{fill:#0097B9;}
	.st1{opacity:0.2;enable-background:new    ;}
	.st2{fill:#FFFFFF;}
</style>
<path class="st0" d="M28.1,14.1L28.1,14.1L28.1,14.1c0-7.8-6.3-14.1-14-14.1s-14,6.3-14,14l0,0l0,0c0,0.9,0.1,1.9,0.3,2.8
	C1.7,24.6,7.7,31.6,14.2,39c6.4-7.4,12.4-14.4,13.8-22.2C28,15.9,28.1,15,28.1,14.1z"/>
<path class="st1" d="M14,4c5.8,0,10.4,4.7,10.4,10.4c0,5.8-4.7,10.4-10.4,10.4S3.6,20.1,3.6,14.4S8.3,4,14,4L14,4z"/>
<g>
	<polygon class="st2" points="14.1,21.2 7.7,14.8 8.4,14.1 14.1,19.8 19.7,14.1 20.4,14.8 	"/>
	<path class="st2" d="M16.2,8.7L16.2,8.7c-1,0-1.8,0.6-2.3,1c-0.5-0.4-1.3-0.9-2.3-1l0,0c-0.6,0-1.4,0.2-1.9,0.8
		c-0.5,0.5-0.8,1.2-0.9,1.9c0,0.8,0.2,1.4,0.7,1.9l0,0l4.4,4.1l4.4-4.1l0,0l0,0c0.5-0.5,0.7-1.2,0.7-1.9c0-0.7-0.4-1.4-0.9-1.9
		C17.6,8.9,16.7,8.7,16.2,8.7L16.2,8.7z"/>
</g>
</svg>
