<svg xmlns="http://www.w3.org/2000/svg" xmlns:xlink="http://www.w3.org/1999/xlink" viewBox="7183.5 8485 139.585 170.93"><defs><style>.a{fill:url(#a);}.b{fill:#fff;}.c{filter:url(#b);}</style><linearGradient id="a" x1="0.5" x2="0.5" y2="1" gradientUnits="objectBoundingBox"><stop offset="0" stop-color="#ed1c24"/><stop offset="1" stop-color="#ed1c24"/></linearGradient><filter id="b" x="7183.5" y="8485" width="139.585" height="170.93" filterUnits="userSpaceOnUse"><feOffset dy="3" input="SourceAlpha"/><feGaussianBlur result="c"/><feFlood flood-opacity="0.161"/><feComposite operator="in" in2="c"/><feComposite in="SourceGraphic"/></filter></defs><g transform="translate(6623.398 8351)"><g class="c" transform="matrix(1, 0, 0, 1, -6623.4, -8351)"><path class="a" d="M132.187,36.991c0-11.32,1.783-16.846,2.941-20.5a15.748,15.748,0,0,0,1.07-4.9c0-3.744-2.318-4.189-3.3-4.189-1.783,0-4.011.891-6.953,1.961-4.992,1.961-11.855,4.635-20.947,4.635-18.54,0-26.473-7.309-30.752-11.142C72.377,1.159,71.13,0,69.793,0c-1.426,0-2.585,1.159-4.457,2.852C61.057,6.774,53.124,13.994,34.5,13.994c-9,0-15.866-2.674-20.947-4.635C10.7,8.29,8.379,7.4,6.6,7.4c-.98,0-3.3.446-3.3,4.189a15.748,15.748,0,0,0,1.07,4.9c1.159,3.655,2.941,9.181,2.941,20.5,0,12.746-1.872,23.353-3.655,33.693C1.872,81.113,0,91.9,0,104.912c0,22.195,12.568,36.367,40.735,45.815,14.351,4.813,21.036,10.964,24.512,14.262,1.961,1.783,3.12,2.941,4.546,2.941h0c1.337,0,2.585-1.07,4.546-2.941,3.565-3.3,10.161-9.448,24.512-14.262,28.167-9.537,40.735-23.621,40.735-45.815,0-13.014-1.872-23.8-3.744-34.228C134.059,60.344,132.187,49.737,132.187,36.991Z" transform="translate(7183.5 8485)"/></g><path class="b" d="M51.538,41.222V59.049A11.612,11.612,0,0,1,50.023,64.4l6.863-4.189A4.365,4.365,0,0,1,55.1,56.732v-9l5.794-3.12v8.468a15.461,15.461,0,0,1-.98,5.437l5.7-3.476a4.355,4.355,0,0,1-1.694-3.209V31.863a7.924,7.924,0,0,1,.713-2.763l-5.794,3.565c.713.713,2.139,2.05,2.139,3.744v5.17L55.193,44.7V37.924a8.413,8.413,0,0,1,1.159-3.744L49.4,38.459C49.221,38.459,51.538,39.172,51.538,41.222Z" transform="translate(554.736 130.838)"/><path class="b" d="M72.252,29.274V47.547a12.463,12.463,0,0,1-1.07,4.278l13.549-8.2.089-6.507a21.024,21.024,0,0,1-5.883,8.2c-2.585,2.05-3.031,1.515-3.031-.357V35.514a5.408,5.408,0,0,1,1.515-1.248c1.783-.891,3.387-.178,6.061-1.6,3.031-1.6,2.5-5.883,2.5-5.883a6.932,6.932,0,0,1-2.941,3.12c-2.05.891-3.12.713-4.813,1.515a12.762,12.762,0,0,0-2.407,1.515V24.372a12.41,12.41,0,0,1,2.317-1.248,3.71,3.71,0,0,1,4.279,1.159V18.4L69.4,26.333A3,3,0,0,1,72.252,29.274Z" transform="translate(552.561 132.001)"/><path class="b" d="M66.746,92.619s-1.6-7.4-2.585-11.409a10.144,10.144,0,0,1,.089-5.526L58.1,79.427a4.493,4.493,0,0,1,2.139,2.852c.446,1.872,6.418,24.869,6.418,24.869s4.278-23.977,5.17-28.88A43.084,43.084,0,0,1,73.966,69.8l-6.418,3.833a2.792,2.792,0,0,1,1.694,3.031C68.974,79.783,66.746,92.619,66.746,92.619Z" transform="translate(553.789 126.416)"/><path class="b" d="M28.725,97s-1.6,2.228-3.655,2.228c-1.515,0-2.318-1.426-4.992-1.426a7.367,7.367,0,0,0-7.042,7.755c0,4.457,2.763,7.487,5.615,10.25,2.941,2.852,5.972,5.348,5.972,9.092a4.976,4.976,0,0,1-4.546,4.992,3.652,3.652,0,0,1-3.744-3.031,1.55,1.55,0,0,1,1.515-1.694,5.861,5.861,0,0,1,2.139.8s-.178-3.833-3.565-3.833a4.756,4.756,0,0,0-4.724,4.992,7.526,7.526,0,0,0,7.4,6.774c4.635,0,9.181-4.546,9.181-10.7,0-5.081-2.585-7.755-5.259-10.072-3.12-2.674-6.418-5.17-6.418-8.824,0-2.941,2.5-3.655,4.189-3.655s5.081,1.961,3.12,5.437l4.1,3.12s-.535-1.961-.891-3.031a10.474,10.474,0,0,1,0-4.992C27.744,99.674,28.725,97,28.725,97Z" transform="translate(558.831 123.461)"/><path class="b" d="M37.7,45.535V67.551a17.5,17.5,0,0,1-1.07,4.724l6.953-4.189a3.8,3.8,0,0,1-2.317-3.655V44.822c0-2.318.357-3.476,1.426-2.407a22.867,22.867,0,0,1,2.585,3.922V36.8L32.8,44.466V54.894s1.961-6.6,2.852-8.735C36.455,44.109,37.7,44.2,37.7,45.535Z" transform="translate(556.538 130.002)"/><path class="b" d="M88.1,91.28c-.535-.267-1.337-1.07-1.872-3.3C85.516,84.595,80.257,62.4,80.257,62.4s-5.17,27.1-5.972,30.93a49.783,49.783,0,0,1-2.585,8.111l6.239-3.922A3.809,3.809,0,0,1,76.6,93.775c.089-.713.357-1.872.624-3.387l4.9-2.763c0,.089.089.178.089.357a14.819,14.819,0,0,1,.267,6.774ZM77.939,87c.891-4.546,1.872-9.448,1.872-9.448s.98,4.1,1.783,7.4Z" transform="translate(552.312 127.22)"/><path class="b" d="M39.133,85.9s-4.992,28.256-5.616,32.623A42.027,42.027,0,0,1,31.2,127.08l7.844-4.992c-1.159-.178-2.852-.713-2.585-2.763.089-.8.267-2.228.535-4.1l4.546-2.674c.178.713.357,1.426.446,1.961a9.958,9.958,0,0,1-.178,5.794l5.616-3.565A7.486,7.486,0,0,1,45.729,113C44.927,110.056,39.133,85.9,39.133,85.9Zm-1.694,25.671c.713-4.813,1.6-9.894,1.6-9.894s.891,4.011,1.783,7.933Z" transform="translate(556.712 124.667)"/><path class="b" d="M96.227,60.537c.891.713,2.318,4.278,2.318,4.278V55.1L86.6,62.231v8.111a35.968,35.968,0,0,1,2.05-5.794c.98-1.694,2.5-2.763,2.5.535V85.406a16.2,16.2,0,0,1-.8,4.635L96.316,86.3c-.713-.357-1.872-1.337-1.872-4.279V61.429C94.444,60.27,95.424,59.735,96.227,60.537Z" transform="translate(550.693 128.013)"/><path class="b" d="M90.8,94.3Z" transform="translate(550.236 123.754)"/><path class="b" d="M102.4,57.063V78.9a10.115,10.115,0,0,1-1.159,4.813l6.6-4.1c-.624-.357-1.337-1.159-1.337-3.031V53.765a7.263,7.263,0,0,1,.8-3.565L100.8,54.122A3.264,3.264,0,0,1,102.4,57.063Z" transform="translate(549.15 128.546)"/><path class="b" d="M130.851,80.4c-.891,0-2.5,1.961-2.5,1.961a3.363,3.363,0,0,1,1.783,3.3c0,2.317-1.159,4.813-2.05,7.309-.891,2.585-2.5,6.418-2.5,6.418s-2.05-4.278-2.674-5.972a10.218,10.218,0,0,1,0-5.17L116.5,92.255a3.71,3.71,0,0,1,2.674,1.694c.891,1.694,4.457,9.627,4.457,9.627v10.161a10.91,10.91,0,0,1-1.426,4.724l6.863-4.368s-1.783-.357-1.783-3.922v-7.844s3.833-10.7,4.635-12.925,1.515-3.476,1.515-5.259C133.436,82.539,131.653,80.4,130.851,80.4Z" transform="translate(547.444 125.264)"/><path class="b" d="M122.638,58.205c0-8.468-2.05-13.905-5.883-13.905-3.744,0-7.755,5.794-7.755,15.42,0,9.448,2.228,15.42,6.061,15.42C119.607,75.141,122.638,66.762,122.638,58.205Zm-7.131,14.083c-1.694,0-2.941-4.813-2.941-12.479,0-7.844,1.961-12.568,3.833-12.568,2.228,0,2.852,4.546,2.852,11.409C119.251,64.623,117.646,72.288,115.507,72.288Z" transform="translate(548.259 129.187)"/><path class="b" d="M134.207,28.4c-.8,0-2.407,1.426-2.407,1.426a3.935,3.935,0,0,1,1.872,3.476c0,2.5-.535,13.281-.535,13.281L128.5,36.69l-4.9,2.941c1.07,0,2.407.357,2.407,2.228V62.717a11.829,11.829,0,0,1-1.248,5.437l5.7-3.565s-1.694-.713-1.694-4.1V48.1l7.4,15.6h.624V35.887c0-2.407.624-4.011-.178-5.7A2.455,2.455,0,0,0,134.207,28.4Z" transform="translate(546.672 130.914)"/><path class="b" d="M111.56,121.106V99a10.268,10.268,0,0,1,.98-4.1l-4.368,2.674-3.922,14.351-4.813-8.913L94,106.4a3.409,3.409,0,0,1,3.209,3.744v19.877a12.09,12.09,0,0,1-1.426,5.348L102.646,131a3.184,3.184,0,0,1-1.872-3.031v-14.44l3.922,7.666,3.655-12.835v14.083a18.474,18.474,0,0,1-1.337,5.7L112.9,124.4C112.362,124.225,111.56,123.245,111.56,121.106Z" transform="translate(549.889 123.689)"/><path class="b" d="M96.518,142.493c-1.961,0-3.565-1.694-4.992-4.546-1.248-2.407-3.209-6.418-3.744-7.577,2.5-2.05,5.437-5.7,5.437-10.518,0-4.724-2.317-6.952-5.526-6.952a9.591,9.591,0,0,0-5.794,2.228c-1.961,1.337-4.1,2.585-4.1,2.585a2.467,2.467,0,0,1,2.5,2.763v21.481a14.352,14.352,0,0,1-.446,4.724l5.972-3.833a3.716,3.716,0,0,1-1.694-2.941v-7.666h.357a.536.536,0,0,0,.357-.089c.535,1.248,2.941,6.418,4.011,8.824,1.159,2.763,3.922,4.9,5.972,4.9,3.922,0,5.081-5.17,5.081-5.17A4.943,4.943,0,0,1,96.518,142.493Zm-11.944-13.37h-.535V116.465a3.939,3.939,0,0,1,2.05-.624c1.694,0,3.031.446,3.031,4.992C89.209,126.181,86.09,129.123,84.574,129.123Z" transform="translate(551.649 121.733)"/><path class="b" d="M60.333,109.243v-9.181a42.869,42.869,0,0,1-3.565,8.735c-1.337,2.05-2.763,2.139-2.763,1.248V88.3a15.321,15.321,0,0,1,1.337-6.6L48.3,85.978s1.961.357,1.961,3.922v25.76Z" transform="translate(554.854 125.123)"/><path class="b" d="M74.457,143.223c-.8-3.565-6.863-28.523-6.863-28.523s-5.972,32.534-6.774,36.634a29.328,29.328,0,0,1-3.12,8.022l8.29-5.17a3.086,3.086,0,0,1-1.961-3.031c0-.713.357-2.5.713-4.813l5.794-3.655c.178.981.446,1.872.535,2.407a14.174,14.174,0,0,1,0,5.883L76.6,147.5C76.062,147.056,75.081,145.9,74.457,143.223Zm-9.181-.267c1.07-6.15,2.407-13.37,2.407-13.37s1.248,5.7,2.317,10.429Z" transform="translate(553.833 121.538)"/></g></svg>